<svg version="1.1" id="Layer_1" xmlns="http://www.w3.org/2000/svg" xmlns:xlink="http://www.w3.org/1999/xlink" x="0px" y="0px"
	 width="254.063px" height="71.222px" viewBox="0 0 254.063 71.222" enable-background="new 0 0 254.063 71.222"
	 xml:space="preserve">
<g>
	<defs>
		<rect id="SVGID_1_" x="-192.425" y="-241.524" width="792" height="612"/>
	</defs>
	<clipPath id="SVGID_2_">
		<use xlink:href="#SVGID_1_"  overflow="visible"/>
	</clipPath>
	<path clip-path="url(#SVGID_2_)" d="M0,0h10.785c12.006,0,23.198,4.884,23.198,18.111v0.509c0,9.157-5.189,13.633-10.276,16.075
		c6.003,2.646,11.192,6.817,11.192,15.873v0.915c0,12.617-9.768,19.739-23.605,19.739H0V0z M12.616,29.913
		c5.495,0,9.158-3.154,9.158-9.36v-0.204c0-6.206-3.663-8.852-9.158-8.852h-0.203v18.416H12.616z M12.718,59.725
		c5.698,0,9.768-3.358,9.768-9.259v-0.509c0-5.901-4.07-9.258-9.768-9.258h-0.305v19.026H12.718z"/>
	<path clip-path="url(#SVGID_2_)" d="M78.529,68.781V55.859c4.375,2.544,7.834,3.968,11.192,3.968c3.561,0,6.613-1.73,6.613-6.105
		v-0.203c0-3.256-1.017-5.698-6.918-12.413c-8.445-9.564-11.905-14.143-11.905-22.791v-0.204c0-11.395,7.428-18.619,17.297-18.619
		c4.986,0,7.936,0.712,10.989,2.238v12.922c-3.867-2.239-6.207-3.256-9.463-3.256c-3.459,0-6.409,2.239-6.409,6.105v0.203
		c0,3.358,1.017,4.579,6.918,11.396c9.768,11.293,11.904,15.668,11.904,23.808v0.204c0,11.191-7.834,18.619-17.602,18.619
		C86.261,71.731,82.09,70.509,78.529,68.781"/>
	<rect x="113.323" clip-path="url(#SVGID_2_)" width="12.413" height="71.222"/>
	<polygon clip-path="url(#SVGID_2_)" points="133.264,0 145.677,0 145.677,59.419 158.803,59.419 158.803,71.222 133.264,71.222
		"/>
	<rect x="163.988" clip-path="url(#SVGID_2_)" width="12.413" height="71.222"/>
	<path clip-path="url(#SVGID_2_)" d="M181.708,36.832V34.39c0-25.029,9.259-34.898,20.858-34.898c3.459,0,5.494,0.406,8.14,1.628
		v12.819c-2.544-1.526-4.579-2.34-6.919-2.34c-5.495,0-9.462,4.884-9.462,22.69v2.645c0,18.823,3.967,22.689,9.666,22.689
		c1.933,0,4.375-0.712,6.918-2.238v12.209c-2.849,1.628-5.596,2.137-9.157,2.137C190.355,71.731,181.708,61.658,181.708,36.832"/>
	<polygon clip-path="url(#SVGID_2_)" points="50.727,54.494 55.944,22.384 61.163,54.494 73.125,54.494 62.762,-0.203
		49.535,-0.203 39.171,54.494 	"/>
	<polygon clip-path="url(#SVGID_2_)" points="61.959,59.397 63.881,71.222 76.294,71.222 74.053,59.397 	"/>
	<polygon clip-path="url(#SVGID_2_)" points="38.242,59.397 36.002,71.222 48.008,71.222 49.93,59.397 	"/>
	<polygon clip-path="url(#SVGID_2_)" points="251.823,59.397 239.729,59.397 241.65,71.222 254.063,71.222 	"/>
	<polygon clip-path="url(#SVGID_2_)" points="228.497,54.494 233.715,22.384 238.933,54.494 250.896,54.494 240.532,-0.203
		227.305,-0.203 216.942,54.494 	"/>
	<polygon clip-path="url(#SVGID_2_)" points="216.013,59.397 213.772,71.222 225.778,71.222 227.701,59.397 	"/>
</g>
</svg>
